<svg viewBox="0 0 1120 660" xmlns="http://www.w3.org/2000/svg" font-family="'Malgun Gothic','Apple SD Gothic Neo',sans-serif">
  <rect x="0" y="0" width="1120" height="660" fill="#f8fafc"/>
  <text x="560" y="40" text-anchor="middle" font-size="26" fill="#0f172a" font-weight="800">AI 균열 안전점검 시스템 — 개발 로드맵</text>
  <text x="560" y="66" text-anchor="middle" font-size="13" fill="#64748b">현장미러형 프로젝트 · 1인 개발(이호민) · 6/29 착수 → 7/30 최종 발표</text>

  <!-- 시간축 그리드 (주요 날짜) -->
  <!-- x = 260 + day*25.8 (day: 6/29 기준) -->
  <g font-size="12" fill="#94a3b8">
    <line x1="260" y1="96" x2="1060" y2="96" stroke="#cbd5e1" stroke-width="1"/>
    <line x1="260" y1="96" x2="260" y2="600" stroke="#e2e8f0" stroke-width="1"/>
    <text x="260" y="90" text-anchor="middle">6/29</text>
    <line x1="466" y1="96" x2="466" y2="600" stroke="#eef2f7" stroke-width="1"/>
    <text x="466" y="90" text-anchor="middle">7/7</text>
    <line x1="570" y1="96" x2="570" y2="600" stroke="#eef2f7" stroke-width="1"/>
    <text x="570" y="90" text-anchor="middle">7/11</text>
    <line x1="673" y1="96" x2="673" y2="600" stroke="#eef2f7" stroke-width="1"/>
    <text x="673" y="90" text-anchor="middle">7/15</text>
    <line x1="853" y1="96" x2="853" y2="600" stroke="#eef2f7" stroke-width="1"/>
    <text x="853" y="90" text-anchor="middle">7/22</text>
    <line x1="931" y1="96" x2="931" y2="600" stroke="#eef2f7" stroke-width="1"/>
    <text x="931" y="90" text-anchor="middle">7/25</text>
    <line x1="1060" y1="96" x2="1060" y2="600" stroke="#cbd5e1" stroke-width="1"/>
    <text x="1060" y="90" text-anchor="middle">7/30</text>
  </g>

  <!-- TODAY 라인 (7/19) -->
  <line x1="776" y1="100" x2="776" y2="600" stroke="#ef4444" stroke-width="1.5" stroke-dasharray="5,4"/>
  <text x="776" y="616" text-anchor="middle" font-size="12" fill="#ef4444" font-weight="700">TODAY 7/19</text>

  <!-- Phase 바 -->
  <!-- 완료(green) -->
  <g font-size="13.5" fill="#0f172a">
    <text x="245" y="128" text-anchor="end">데이터 수집·YOLO 변환</text>
    <rect x="260" y="114" width="206" height="24" rx="5" fill="#16a34a"/>
    <text x="363" y="131" text-anchor="middle" font-size="11.5" fill="#fff">완료</text>

    <text x="245" y="168" text-anchor="end">YOLO 학습·타일 개선</text>
    <rect x="466" y="154" width="104" height="24" rx="5" fill="#16a34a"/>
    <text x="518" y="171" text-anchor="middle" font-size="11.5" fill="#fff">완료</text>

    <text x="245" y="208" text-anchor="end">앱 골격·실사용 테스트</text>
    <rect x="570" y="194" width="116" height="24" rx="5" fill="#16a34a"/>
    <text x="628" y="211" text-anchor="middle" font-size="11.5" fill="#fff">완료</text>

    <!-- 진행중(RAG): 앞부분 완료 + 뒤 진행 -->
    <text x="245" y="248" text-anchor="end">RAG 파이프라인</text>
    <rect x="686" y="234" width="90" height="24" rx="5" fill="#16a34a"/>
    <rect x="776" y="234" width="77" height="24" rx="5" fill="#d97706"/>
    <text x="731" y="250" text-anchor="middle" font-size="11" fill="#fff">문서·인덱스</text>
    <text x="814" y="250" text-anchor="middle" font-size="11" fill="#fff">검색튜닝</text>

    <!-- 예정(blue) -->
    <text x="245" y="288" text-anchor="end">보고서 생성 (Claude API)</text>
    <rect x="827" y="274" width="104" height="24" rx="5" fill="#2563eb"/>
    <text x="879" y="291" text-anchor="middle" font-size="11.5" fill="#fff">예정</text>

    <text x="245" y="328" text-anchor="end">근거리 게이트·Feature 보정</text>
    <rect x="853" y="314" width="78" height="24" rx="5" fill="#2563eb"/>
    <text x="892" y="331" text-anchor="middle" font-size="11.5" fill="#fff">예정</text>

    <text x="245" y="368" text-anchor="end">앱·발표자료 정리</text>
    <rect x="931" y="354" width="77" height="24" rx="5" fill="#2563eb"/>
    <text x="969" y="371" text-anchor="middle" font-size="11.5" fill="#fff">예정</text>

    <text x="245" y="408" text-anchor="end">검증·리허설</text>
    <rect x="1008" y="394" width="52" height="24" rx="5" fill="#2563eb"/>
    <text x="1034" y="411" text-anchor="middle" font-size="10.5" fill="#fff">예정</text>
  </g>

  <!-- 마일스톤 다이아몬드 -->
  <g>
    <path d="M260,440 l9,12 l-9,12 l-9,-12 z" fill="#7c3aed"/>
    <text x="260" y="484" text-anchor="middle" font-size="11" fill="#7c3aed" font-weight="700">1차 멘토링</text>
    <text x="260" y="498" text-anchor="middle" font-size="10.5" fill="#7c3aed">6/29</text>

    <path d="M570,440 l9,12 l-9,12 l-9,-12 z" fill="#7c3aed"/>
    <text x="570" y="484" text-anchor="middle" font-size="11" fill="#7c3aed" font-weight="700">2차 멘토링</text>
    <text x="570" y="498" text-anchor="middle" font-size="10.5" fill="#7c3aed">7/11</text>

    <path d="M1060,440 l10,13 l-10,13 l-10,-13 z" fill="#dc2626"/>
    <text x="1060" y="486" text-anchor="middle" font-size="11.5" fill="#dc2626" font-weight="800">최종 발표</text>
    <text x="1060" y="500" text-anchor="middle" font-size="10.5" fill="#dc2626">7/30</text>
  </g>

  <!-- 범례 + 우선순위 메모 -->
  <rect x="80" y="524" width="960" height="72" rx="10" fill="#ffffff" stroke="#e2e8f0"/>
  <rect x="100" y="540" width="16" height="14" rx="3" fill="#16a34a"/><text x="124" y="552" font-size="12.5" fill="#334155">완료</text>
  <rect x="176" y="540" width="16" height="14" rx="3" fill="#d97706"/><text x="200" y="552" font-size="12.5" fill="#334155">진행중</text>
  <rect x="266" y="540" width="16" height="14" rx="3" fill="#2563eb"/><text x="290" y="552" font-size="12.5" fill="#334155">예정</text>
  <path d="M344,540 l8,10 l-8,10 l-8,-10 z" fill="#7c3aed"/><text x="360" y="556" font-size="12.5" fill="#334155">마일스톤</text>
  <text x="100" y="582" font-size="12.5" fill="#9a3412" font-weight="700">우선순위(멘토 피드백):</text>
  <text x="238" y="582" font-size="12.5" fill="#7c2d12">RAG·보고서 품질 ▲ 최우선 · 탐지 성능은 F1 표시 수준으로 유지 · UI 최소</text>
</svg>
